<?xml version="1.0" encoding="utf-8"?>
<!-- Generator: Adobe Illustrator 17.1.0, SVG Export Plug-In . SVG Version: 6.00 Build 0)  -->
<!DOCTYPE svg PUBLIC "-//W3C//DTD SVG 1.1//EN" "http://www.w3.org/Graphics/SVG/1.1/DTD/svg11.dtd">
<svg version="1.1" id="Layer_1" xmlns="http://www.w3.org/2000/svg" xmlns:xlink="http://www.w3.org/1999/xlink" x="0px" y="0px"
	 viewBox="0 0 600 300" enable-background="new 0 0 600 300" xml:space="preserve">
<path id="Bottom" fill="#571675" d="M300.7,157.3c0,0,75.3,86.9,67.7,118.6c-2.8,30.7-131.2,33.1-136.7-1
	C226.4,241.4,300.7,157.3,300.7,157.3z"/>
<path id="Left" fill="#571675" d="M294.4,151c0,0-80.6,82-113,76.7c-30.7-0.3-43.6-128.4-10.1-136.4S294.4,151,294.4,151z"/>
<path id="Right" fill="#571675" d="M307,150.7c0,0,81.3-80.9,113.7-75.7c30.7,0.7,42.2,128.7,8.4,136.4S307,150.7,307,150.7z"/>
<path id="Top" fill="#571675" d="M300.3,143.7c0,0-75.7-86.2-68.4-118.3c2.4-30.7,131.2-34.2,136.7,0S300.3,143.7,300.3,143.7z"/>
</svg>
