<?xml version="1.0" encoding="utf-8"?>
<!-- Generator: Adobe Illustrator 17.1.0, SVG Export Plug-In . SVG Version: 6.00 Build 0)  -->
<!DOCTYPE svg PUBLIC "-//W3C//DTD SVG 1.1//EN" "http://www.w3.org/Graphics/SVG/1.1/DTD/svg11.dtd">
<svg version="1.1" id="Layer_1" xmlns="http://www.w3.org/2000/svg" xmlns:xlink="http://www.w3.org/1999/xlink" x="0px" y="0px"
	 viewBox="0 0 305.6 302" enable-background="new 0 0 305.6 302" xml:space="preserve">
<path id="Right" fill="#571675" d="M158.8,151.9c0,0,83.7-83.3,117-77.7c31.7,0.7,43.3,132.3,8.8,140.2S158.8,151.9,158.8,151.9z"/>
<path id="Right_1_" fill="#571675" d="M153.4,147.3c0,0-81.5-85.5-75.1-118.7C79.7-3,211.6-11.7,218.6,23S153.4,147.3,153.4,147.3z"
	/>
<path id="Right_7_" fill="#2BBEE0" d="M149,147.7c0,0-15.4-92.1-39.5-103.7c-20.7-14.1-88.7,65.1-70.1,86S149,147.7,149,147.7z"/>
<path id="Right_2_" fill="#571675" d="M147.6,152.2c0,0-87.7,79.1-120.7,71.7C-4.8,221.6-9.8,89.6,25.1,83.5
	C60,77.4,147.6,152.2,147.6,152.2z"/>
<path id="Right_6_" fill="#2BBEE0" d="M158.2,155.1c0,0,16.2,91.9,40.4,103.4c20.8,13.9,88.1-65.9,69.3-86.7
	S158.2,155.1,158.2,155.1z"/>
<path id="Right_3_" fill="#571675" d="M153.7,155.3c0,0-80.9,86-74.3,119.2c1.6,31.6,133.5,39.5,140.4,4.7
	C226.6,244.5,153.7,155.3,153.7,155.3z"/>
<path id="Right_4_" fill="#2BBEE0" d="M155.5,147.9c0,0,2.6-93.3,24.8-108.2c18.5-16.8,96.8,52.2,81.3,75.5S155.5,147.9,155.5,147.9
	z"/>
<path id="Right_5_" fill="#2BBEE0" d="M149.6,155.4c0,0-93-8.2-110.3,12.1C20.4,184,80,269.7,104.9,257
	C129.9,244.2,149.6,155.4,149.6,155.4z"/>
</svg>
