<svg id="github" viewBox="0 0 30.9 30.5">
    <path fillRule="evenodd" fill="#fff" clipRule="evenodd" d="M15.5,0C6.9,0,0,7,0,15.6c0,6.9,4.4,12.8,10.6,14.8c0.8,0.1,1.1-0.3,1.1-0.8 c0-0.4,0-1.4,0-2.7c-4.3,0.9-5.2-2.1-5.2-2.1c-0.7-1.8-1.7-2.3-1.7-2.3c-1.4-1,0.1-0.9,0.1-0.9c1.6,0.1,2.4,1.6,2.4,1.6
    c1.4,2.4,3.6,1.7,4.5,1.3c0.1-1,0.5-1.7,1-2.1c-3.4-0.4-7-1.7-7-7.7c0-1.7,0.6-3.1,1.6-4.2c-0.2-0.4-0.7-2,0.2-4.1 c0,0,1.3-0.4,4.3,1.6c1.2-0.3,2.6-0.5,3.9-0.5c1.3,0,2.6,0.2,3.9,0.5c3-2,4.2-1.6,4.2-1.6c0.8,2.2,0.3,3.7,0.2,4.1 c1,1.1,1.6,2.5,1.6,4.2c0,6-3.6,7.3-7.1,7.7c0.6,0.5,1,1.4,1,2.9c0,2.1,0,3.8,0,4.3c0,0.4,0.3,0.9,1.1,0.8 c6.1-2.1,10.6-7.9,10.6-14.8C30.9,7,24,0,15.5,0z"/>
</svg>