<?xml version="1.0" encoding="utf-8"?>
<!-- Generator: Adobe Illustrator 17.1.0, SVG Export Plug-In . SVG Version: 6.00 Build 0)  -->
<!DOCTYPE svg PUBLIC "-//W3C//DTD SVG 1.1//EN" "http://www.w3.org/Graphics/SVG/1.1/DTD/svg11.dtd">
<svg version="1.1" id="github" xmlns="http://www.w3.org/2000/svg" xmlns:xlink="http://www.w3.org/1999/xlink" x="0px" y="0px"
	 viewBox="128 -13.5 340.5 339.5" enable-background="new 128 -13.5 340.5 339.5" xml:space="preserve">
<circle fill="#BCBBBB" cx="300" cy="155" r="168.5"/>
<path fill="#070000" d="M244.3,313.9c8.9,1,12.1-3.2,12.1-8.9c0-4.4,0-15.5,0-29.8C209.1,285.1,199,252,199,252
	c-7.7-19.9-18.8-25.4-18.8-25.4c-15.5-11.1,1-9.9,1-9.9c17.7,1,26.4,17.7,26.4,17.7c15.5,26.4,39.7,18.8,49.6,14.3
	c1-11.1,5.5-18.8,11.1-23.2c-37.5-4.4-77.2-18.8-77.2-84.9c0-18.8,6.6-34.3,17.7-46.4c-2.2-4.4-7.7-22,2.2-45.2
	c0,0,14.3-4.4,47.4,17.7c13.3-3.2,28.6-5.5,43-5.5c14.3,0,28.6,2.2,43,5.5C378,44.6,391.1,49,391.1,49c8.9,24.2,3.2,40.7,2.2,45.2
	c11.1,12.1,17.7,27.6,17.7,46.4c0,66.1-39.7,80.5-78.4,84.9c6.6,5.5,11.1,15.5,11.1,32c0,23.2,0,41.9,0,47.4c0,4.4,3.2,9.9,12.1,8.9
	C327.5,326,285.4,327.7,244.3,313.9z"/>
</svg>
