<?xml version="1.0" encoding="utf-8"?>
<!-- Generator: Adobe Illustrator 17.1.0, SVG Export Plug-In . SVG Version: 6.00 Build 0)  -->
<!DOCTYPE svg PUBLIC "-//W3C//DTD SVG 1.1//EN" "http://www.w3.org/Graphics/SVG/1.1/DTD/svg11.dtd">
<svg version="1.1" id="linkedin" xmlns="http://www.w3.org/2000/svg" xmlns:xlink="http://www.w3.org/1999/xlink" x="0px" y="0px"
	 viewBox="130.3 -19.7 339 339" enable-background="new 130.3 -19.7 339 339" xml:space="preserve">
<circle fill="#BCBBBB" cx="300" cy="150" r="168.5"/>
<g>
	<path d="M241.2,244.5h-44.4V100.8h44.4C241.2,100.8,241.2,244.5,241.2,244.5z M218.6,82.5c-16.2,0-24-7.1-24-21.9
		c0-6.3,2.1-11.3,7-15.4c5-5,10.5-7.1,17-7.1c16.2,0,24,7.8,24,21.9C242.6,74.7,234.8,82.5,218.6,82.5L218.6,82.5z M405.3,244.5
		h-45.1v-80.4c0-21.1-7.1-31.6-21.9-31.6c-11.3,0-19,5.7-23.3,17.5c-1.3,2.1-2.1,5.7-2.1,11.3v83.3h-45v-97.9
		c0-21.9,0-37.4-0.8-45.8h38.1l2.9,19c9.9-15.5,24.6-23.3,45.1-23.3c15.5,0,27.5,5.7,37.3,16.2c9.9,10.5,14.1,26.1,14.1,46.5v85.2
		H405.3z"/>
</g>
</svg>
